<svg width="19" height="19" viewBox="0 0 19 19" fill="none" xmlns="http://www.w3.org/2000/svg">
<path d="M9.50004 1.58325C8.46041 1.58325 7.43096 1.78802 6.47046 2.18587C5.50997 2.58372 4.63724 3.16686 3.90211 3.90199C2.41745 5.38665 1.58337 7.40029 1.58337 9.49992C1.58337 11.5995 2.41745 13.6132 3.90211 15.0978C4.63724 15.833 5.50997 16.4161 6.47046 16.814C7.43096 17.2118 8.46041 17.4166 9.50004 17.4166C11.5997 17.4166 13.6133 16.5825 15.098 15.0978C16.5826 13.6132 17.4167 11.5995 17.4167 9.49992C17.4167 8.46029 17.2119 7.43084 16.8141 6.47034C16.4162 5.50985 15.8331 4.63712 15.098 3.90199C14.3628 3.16686 13.4901 2.58372 12.5296 2.18587C11.5691 1.78802 10.5397 1.58325 9.50004 1.58325ZM12.825 12.8249L8.70837 10.2916V5.54158H9.89587V9.65825L13.4584 11.7958L12.825 12.8249Z" fill="#9E9E9E"/>
</svg>
