<svg width="1920" height="1080" viewBox="0 0 1920 1080" fill="none" xmlns="http://www.w3.org/2000/svg">
<g clip-path="url(#clip0_19_30)">
<rect width="1920" height="1080" fill="#3D8AF5"/>
<path d="M344 -1C344 91.2316 199.785 199 88.5 199C-22.7854 199 -113 124.232 -113 32C-113 -60.2316 -22.7854 -135 88.5 -135C199.785 -135 344 -93.2316 344 -1Z" fill="url(#paint0_linear_19_30)" fill-opacity="0.5"/>
<path d="M2116 674.216C2116 954.5 1776.76 1282 1514.99 1282C1253.21 1282 1041 1054.78 1041 774.5C1041 494.215 1375.22 190.5 1637 190.5C1898.78 190.5 2116 393.931 2116 674.216Z" fill="url(#paint1_linear_19_30)" fill-opacity="0.5"/>
<path d="M2083 62.5C2083 208.31 1961.27 327 1810.5 327C1659.73 327 1538 208.31 1538 62.5C1538 -83.3105 1659.73 -202 1810.5 -202C1961.27 -202 2083 -83.3105 2083 62.5Z" stroke="white" stroke-opacity="0.2" stroke-width="20"/>
</g>
<defs>
<linearGradient id="paint0_linear_19_30" x1="290" y1="57" x2="94.4999" y2="188.5" gradientUnits="userSpaceOnUse">
<stop stop-color="#2C5CDE"/>
<stop offset="1" stop-color="#5335CA"/>
</linearGradient>
<linearGradient id="paint1_linear_19_30" x1="1988.98" y1="850.473" x2="1463.49" y2="1124.07" gradientUnits="userSpaceOnUse">
<stop stop-color="#452CDE"/>
<stop offset="1" stop-color="#762593"/>
</linearGradient>
<clipPath id="clip0_19_30">
<rect width="1920" height="1080" fill="white"/>
</clipPath>
</defs>
</svg>
