<svg width="102" height="36" viewBox="0 0 102 36" fill="none" xmlns="http://www.w3.org/2000/svg">
<path d="M29.7969 0.046875H25.0703V13.7578H21.6328V0.632812H17.0625V33.875H21.6328V17.7422H25.0703V35.5938H29.7969V0.046875ZM0.0703125 27.5469H2.53125C7.21875 27.5273 11.0078 27.3906 15.3438 26.5703L14.9922 22.5078C11.5547 23.1133 8.50781 23.3086 5.07031 23.3672V8.17188H13.3125V4.14844H0.0703125V27.5469ZM35.4103 27.76L35.4503 24.6L35.4903 18.72C35.517 17.8667 35.5303 16.9867 35.5303 16.08C35.5303 15.1733 35.5303 14.24 35.5303 13.28C35.5303 12.32 35.5303 11.4667 35.5303 10.72C35.5303 9.97333 35.557 9.13333 35.6103 8.2V8.04C35.637 7.77333 35.6503 7.50667 35.6503 7.24C35.677 6.94666 35.6903 6.65333 35.6903 6.36C35.717 5.88 35.8636 5.36 36.1303 4.8C36.317 4.42667 36.597 4.10667 36.9703 3.84C37.397 3.62667 37.8103 3.52 38.2103 3.52C38.4236 3.52 38.6103 3.53333 38.7703 3.56C38.957 3.56 39.1303 3.57333 39.2903 3.6C39.637 3.65333 39.9436 3.81333 40.2103 4.08C40.3703 4.21333 40.517 4.42667 40.6503 4.72C40.7036 4.88 40.7436 5.04 40.7703 5.2C40.8236 5.33333 40.8636 5.48 40.8903 5.64C40.917 5.82667 40.9303 6 40.9303 6.16C40.957 6.32 40.9703 6.48 40.9703 6.64C40.9703 6.82667 40.957 7 40.9303 7.16C40.9303 7.29333 40.9303 7.44 40.9303 7.6V8.28L40.6903 29.04V29.44C40.6903 29.52 40.677 29.6267 40.6503 29.76C40.6503 29.8667 40.637 30 40.6103 30.16C40.557 30.2933 40.5036 30.44 40.4503 30.6C40.4236 30.7333 40.3836 30.88 40.3303 31.04C40.2503 31.1733 40.157 31.3067 40.0503 31.44C39.9703 31.5467 39.8636 31.6533 39.7303 31.76C39.517 31.9733 39.1703 32.12 38.6903 32.2C37.9703 32.36 37.2903 32.2933 36.6503 32C36.3303 31.7867 36.1036 31.52 35.9703 31.2C35.8903 31.12 35.8503 31.04 35.8503 30.96C35.8236 30.9067 35.797 30.8667 35.7703 30.84C35.7436 30.8133 35.717 30.7733 35.6903 30.72C35.637 30.5867 35.597 30.4533 35.5703 30.32C35.5436 30.16 35.5303 30 35.5303 29.84C35.5036 29.7067 35.477 29.5733 35.4503 29.44C35.4503 29.3067 35.437 29.1733 35.4103 29.04C35.3836 28.8267 35.3836 28.6 35.4103 28.36V27.76ZM65.8597 4.92C66.153 5.26667 66.2997 5.62667 66.2997 6C66.2997 6.16 66.2864 6.33333 66.2597 6.52C66.2597 6.68 66.2464 6.82666 66.2197 6.96C66.1397 7.25333 65.9664 7.53333 65.6997 7.8C65.4864 7.96 65.193 8.08 64.8197 8.16C64.633 8.21333 64.4464 8.25333 64.2597 8.28C64.073 8.30667 63.873 8.34667 63.6597 8.4C63.473 8.42666 63.2864 8.44 63.0997 8.44C62.913 8.44 62.713 8.44 62.4997 8.44H60.4597C59.9797 8.46667 59.4997 8.48 59.0197 8.48C58.5664 8.48 58.113 8.48 57.6597 8.48C57.6864 9.30667 57.6997 10.2 57.6997 11.16C57.6997 12.0933 57.6864 13.1867 57.6597 14.44C57.6597 15.6933 57.6464 17.1467 57.6197 18.8C57.6197 20.4533 57.6197 22.3733 57.6197 24.56V27.6C57.6197 27.8667 57.633 28.0667 57.6597 28.2C57.6597 28.3067 57.6597 28.4133 57.6597 28.52C57.6597 28.6 57.6464 28.7067 57.6197 28.84C57.5664 29.08 57.5264 29.36 57.4997 29.68C57.4997 29.8133 57.4864 29.9467 57.4597 30.08C57.433 30.1867 57.393 30.3067 57.3397 30.44C57.233 30.5467 57.1797 30.6267 57.1797 30.68L57.0597 30.92C56.9264 31.1867 56.673 31.44 56.2997 31.68C55.713 31.9733 55.0597 32.04 54.3397 31.88C53.8864 31.8267 53.5397 31.7067 53.2997 31.52C53.0597 31.28 52.8864 31.04 52.7797 30.8C52.6197 30.5067 52.5264 30.2267 52.4997 29.96C52.4197 29.72 52.3797 29.4667 52.3797 29.2V8.64C52.2197 8.64 51.8864 8.64 51.3797 8.64C50.873 8.64 50.3264 8.64 49.7397 8.64C49.1797 8.61333 48.6464 8.58667 48.1397 8.56C47.633 8.53333 47.2864 8.50667 47.0997 8.48C46.9397 8.45333 46.6864 8.41333 46.3397 8.36C46.0197 8.30666 45.753 8.25333 45.5397 8.2C44.9797 8.04 44.5397 7.78667 44.2197 7.44C43.9264 7.09333 43.7797 6.70667 43.7797 6.28C43.7797 6.12 43.7797 5.96 43.7797 5.8C43.7797 5.64 43.8064 5.49333 43.8597 5.36C43.9397 5.04 44.153 4.77333 44.4997 4.56C44.6064 4.48 44.7664 4.38667 44.9797 4.28C45.2197 4.14667 45.4464 4.05333 45.6597 4C45.9797 3.89333 46.3797 3.81333 46.8597 3.76C47.073 3.73333 47.2864 3.72 47.4997 3.72C47.713 3.72 47.9397 3.72 48.1797 3.72C49.113 3.72 49.993 3.72 50.8197 3.72C51.673 3.72 52.5664 3.70667 53.4997 3.68C55.0464 3.65333 56.5797 3.65333 58.0997 3.68C59.6464 3.68 61.1797 3.70667 62.6997 3.76C63.0464 3.78667 63.3797 3.82667 63.6997 3.88C64.0197 3.93333 64.3397 4.02667 64.6597 4.16C64.8997 4.24 65.1264 4.34667 65.3397 4.48C65.553 4.58667 65.7264 4.73333 65.8597 4.92ZM101.477 27.3516H87.4922V19.3047H82.5312V27.3516H68.9375V31.3359H101.477V27.3516ZM69.7188 16.2969L71.8281 20.4375C78.0391 19.3242 82.668 15.9453 84.9922 11.5312C87.3359 15.9648 91.9844 19.3047 98.2344 20.4375L100.344 16.2969C92.2188 15.0469 87.6289 9.69531 87.6484 4.61719V2.07812H82.3359V4.61719C82.2969 9.63672 77.7656 15.0469 69.7188 16.2969Z" fill="url(#paint0_linear_19_14)"/>
<defs>
<linearGradient id="paint0_linear_19_14" x1="50.5" y1="-7" x2="50.5" y2="43" gradientUnits="userSpaceOnUse">
<stop stop-color="#2C5CDE"/>
<stop offset="1" stop-color="#3113EA"/>
</linearGradient>
</defs>
</svg>
