<svg width="120" height="43" viewBox="0 0 120 43" fill="none" xmlns="http://www.w3.org/2000/svg">
<path d="M26.3225 15.4466L26.3226 15.4484L26.7687 21.9066C26.7688 21.907 26.7688 21.9075 26.7688 21.9079C26.8149 22.544 26.7233 23.1826 26.5003 23.7801C26.2772 24.3778 25.9278 24.9204 25.476 25.3708C25.4758 25.3709 25.4757 25.3711 25.4755 25.3712L15.0213 35.8395L15.0211 35.8398C14.6064 36.2546 14.1139 36.5836 13.572 36.8081C13.03 37.0326 12.4492 37.1482 11.8626 37.1482C11.2759 37.1482 10.6951 37.0326 10.1531 36.8081C9.61118 36.5836 9.11876 36.2546 8.70399 35.8398L8.70364 35.8394L1.80472 28.9263M26.3225 15.4466L1.80472 28.9263M26.3225 15.4466C26.2444 14.3739 25.7819 13.3655 25.0199 12.6065C24.2581 11.8476 23.248 11.389 22.1752 11.3149C22.1751 11.3149 22.175 11.3149 22.1749 11.3149L15.7155 10.8616L15.7155 10.8616L15.7117 10.8614C15.0774 10.8217 14.4418 10.9161 13.8463 11.1383L14.0202 11.6041L13.8463 11.1383C13.2509 11.3606 12.7089 11.7058 12.2557 12.1514L12.2557 12.1514L12.2524 12.1547L1.80472 22.6236M26.3225 15.4466L1.80472 22.6236M1.80472 28.9263L1.80447 28.9261M1.80472 28.9263C1.80464 28.9262 1.80456 28.9262 1.80447 28.9261M1.80447 28.9261C0.9692 28.0901 0.5 26.9567 0.5 25.775C0.5 24.5932 0.969201 23.4598 1.80448 22.6239M1.80447 28.9261L1.80448 22.6239M1.80448 22.6239C1.80456 22.6238 1.80464 22.6237 1.80472 22.6236M1.80448 22.6239L1.80472 22.6236M13.3019 34.1289L13.3026 34.1282L14.6177 32.8242L4.81464 23.0212L3.51069 24.3251L3.50869 24.3271L3.50869 24.3271C3.3168 24.5168 3.16445 24.7428 3.06048 24.9918C2.95651 25.2408 2.90297 25.508 2.90297 25.7778C2.90297 26.0477 2.95651 26.3148 3.06048 26.5638C3.16445 26.8129 3.3168 27.0388 3.50869 27.2285L3.5107 27.2305L3.51069 27.2305L10.4091 34.1289H13.3019ZM13.3019 34.1289C12.9177 34.5114 12.3976 34.7262 11.8555 34.7262M13.3019 34.1289L11.8555 34.7262M11.8555 34.7262C11.3137 34.7262 10.794 34.5117 10.4099 34.1297L11.8555 34.7262ZM24.2319 22.9387C24.14 23.1833 24.0033 23.4082 23.8289 23.602L23.8286 23.6021L23.7561 23.6747L16.3182 31.1125L6.52734 21.3085L13.9657 13.8701L13.9676 13.8682C14.1564 13.6773 14.3813 13.5257 14.6291 13.4223C14.8755 13.3195 15.1399 13.2663 15.4069 13.2657C15.4092 13.266 15.4169 13.2668 15.4343 13.2689L15.4391 13.2696C15.4617 13.2724 15.5077 13.2782 15.5597 13.2796L22.0063 13.732L22.0066 13.732C22.4978 13.7662 22.9604 13.976 23.3096 14.3232C23.6585 14.67 23.871 15.1307 23.9085 15.6211C23.9085 15.6216 23.9085 15.6221 23.9086 15.6226L24.3614 22.0755C24.3615 22.0762 24.3615 22.0769 24.3615 22.0776C24.3792 22.3706 24.335 22.664 24.2319 22.9387L24.6999 23.1145L24.2319 22.9387Z" fill="url(#paint0_linear_19_25)" stroke="url(#paint1_linear_19_25)"/>
<path d="M19.1333 20C19.9617 20 20.6333 19.3284 20.6333 18.5C20.6333 17.6716 19.9617 17 19.1333 17C18.3049 17 17.6333 17.6716 17.6333 18.5C17.6333 19.3284 18.3049 20 19.1333 20Z" fill="#3113EA"/>
<path d="M59.0708 7.4375H55.2896V18.4062H52.5396V7.90625H48.8833V34.5H52.5396V21.5938H55.2896V35.875H59.0708V7.4375ZM35.2896 29.4375H37.2583C41.0083 29.4219 44.0396 29.3125 47.5083 28.6562L47.2271 25.4062C44.4771 25.8906 42.0396 26.0469 39.2896 26.0938V13.9375H45.8833V10.7188H35.2896V29.4375ZM63.7036 29.396L63.7376 26.71L63.7716 21.712C63.7942 20.9867 63.8056 20.2387 63.8056 19.468C63.8056 18.6973 63.8056 17.904 63.8056 17.088C63.8056 16.272 63.8056 15.5467 63.8056 14.912C63.8056 14.2773 63.8282 13.5633 63.8736 12.77V12.634C63.8962 12.4073 63.9076 12.1807 63.9076 11.954C63.9302 11.7047 63.9416 11.4553 63.9416 11.206C63.9642 10.798 64.0889 10.356 64.3156 9.88C64.4742 9.56267 64.7122 9.29067 65.0296 9.064C65.3922 8.88267 65.7436 8.792 66.0836 8.792C66.2649 8.792 66.4236 8.80333 66.5596 8.826C66.7182 8.826 66.8656 8.83733 67.0016 8.86C67.2962 8.90533 67.5569 9.04133 67.7836 9.268C67.9196 9.38133 68.0442 9.56267 68.1576 9.812C68.2029 9.948 68.2369 10.084 68.2596 10.22C68.3049 10.3333 68.3389 10.458 68.3616 10.594C68.3842 10.7527 68.3956 10.9 68.3956 11.036C68.4182 11.172 68.4296 11.308 68.4296 11.444C68.4296 11.6027 68.4182 11.75 68.3956 11.886C68.3956 11.9993 68.3956 12.124 68.3956 12.26V12.838L68.1916 30.484V30.824C68.1916 30.892 68.1802 30.9827 68.1576 31.096C68.1576 31.1867 68.1462 31.3 68.1236 31.436C68.0782 31.5493 68.0329 31.674 67.9876 31.81C67.9649 31.9233 67.9309 32.048 67.8856 32.184C67.8176 32.2973 67.7382 32.4107 67.6476 32.524C67.5796 32.6147 67.4889 32.7053 67.3756 32.796C67.1942 32.9773 66.8996 33.102 66.4916 33.17C65.8796 33.306 65.3016 33.2493 64.7576 33C64.4856 32.8187 64.2929 32.592 64.1796 32.32C64.1116 32.252 64.0776 32.184 64.0776 32.116C64.0549 32.0707 64.0322 32.0367 64.0096 32.014C63.9869 31.9913 63.9642 31.9573 63.9416 31.912C63.8962 31.7987 63.8622 31.6853 63.8396 31.572C63.8169 31.436 63.8056 31.3 63.8056 31.164C63.7829 31.0507 63.7602 30.9373 63.7376 30.824C63.7376 30.7107 63.7262 30.5973 63.7036 30.484C63.6809 30.3027 63.6809 30.11 63.7036 29.906V29.396ZM89.5855 9.982C89.8349 10.2767 89.9595 10.5827 89.9595 10.9C89.9595 11.036 89.9482 11.1833 89.9255 11.342C89.9255 11.478 89.9142 11.6027 89.8915 11.716C89.8235 11.9653 89.6762 12.2033 89.4495 12.43C89.2682 12.566 89.0189 12.668 88.7015 12.736C88.5429 12.7813 88.3842 12.8153 88.2255 12.838C88.0669 12.8607 87.8969 12.8947 87.7155 12.94C87.5569 12.9627 87.3982 12.974 87.2395 12.974C87.0809 12.974 86.9109 12.974 86.7295 12.974H84.9955C84.5875 12.9967 84.1795 13.008 83.7715 13.008C83.3862 13.008 83.0009 13.008 82.6155 13.008C82.6382 13.7107 82.6495 14.47 82.6495 15.286C82.6495 16.0793 82.6382 17.0087 82.6155 18.074C82.6155 19.1393 82.6042 20.3747 82.5815 21.78C82.5815 23.1853 82.5815 24.8173 82.5815 26.676V29.26C82.5815 29.4867 82.5929 29.6567 82.6155 29.77C82.6155 29.8607 82.6155 29.9513 82.6155 30.042C82.6155 30.11 82.6042 30.2007 82.5815 30.314C82.5362 30.518 82.5022 30.756 82.4795 31.028C82.4795 31.1413 82.4682 31.2547 82.4455 31.368C82.4229 31.4587 82.3889 31.5607 82.3435 31.674C82.2529 31.7647 82.2075 31.8327 82.2075 31.878L82.1055 32.082C81.9922 32.3087 81.7769 32.524 81.4595 32.728C80.9609 32.9773 80.4055 33.034 79.7935 32.898C79.4082 32.8527 79.1135 32.7507 78.9095 32.592C78.7055 32.388 78.5582 32.184 78.4675 31.98C78.3315 31.7307 78.2522 31.4927 78.2295 31.266C78.1615 31.062 78.1275 30.8467 78.1275 30.62V13.144C77.9915 13.144 77.7082 13.144 77.2775 13.144C76.8469 13.144 76.3822 13.144 75.8835 13.144C75.4075 13.1213 74.9542 13.0987 74.5235 13.076C74.0929 13.0533 73.7982 13.0307 73.6395 13.008C73.5035 12.9853 73.2882 12.9513 72.9935 12.906C72.7215 12.8607 72.4949 12.8153 72.3135 12.77C71.8375 12.634 71.4635 12.4187 71.1915 12.124C70.9422 11.8293 70.8175 11.5007 70.8175 11.138C70.8175 11.002 70.8175 10.866 70.8175 10.73C70.8175 10.594 70.8402 10.4693 70.8855 10.356C70.9535 10.084 71.1349 9.85733 71.4295 9.676C71.5202 9.608 71.6562 9.52867 71.8375 9.438C72.0415 9.32467 72.2342 9.24533 72.4155 9.2C72.6875 9.10933 73.0275 9.04133 73.4355 8.996C73.6169 8.97333 73.7982 8.962 73.9795 8.962C74.1609 8.962 74.3535 8.962 74.5575 8.962C75.3509 8.962 76.0989 8.962 76.8015 8.962C77.5269 8.962 78.2862 8.95067 79.0795 8.928C80.3942 8.90533 81.6975 8.90533 82.9895 8.928C84.3042 8.928 85.6075 8.95067 86.8995 8.996C87.1942 9.01867 87.4775 9.05267 87.7495 9.098C88.0215 9.14333 88.2935 9.22267 88.5655 9.336C88.7695 9.404 88.9622 9.49467 89.1435 9.608C89.3249 9.69867 89.4722 9.82333 89.5855 9.982ZM118.18 29.2812H106.993V22.8438H103.024V29.2812H92.1489V32.4688H118.18V29.2812ZM92.7739 20.4375L94.4614 23.75C99.4302 22.8594 103.133 20.1562 104.993 16.625C106.868 20.1719 110.586 22.8438 115.586 23.75L117.274 20.4375C110.774 19.4375 107.102 15.1562 107.118 11.0938V9.0625H102.868V11.0938C102.836 15.1094 99.2114 19.4375 92.7739 20.4375Z" fill="url(#paint2_linear_19_25)"/>
<defs>
<linearGradient id="paint0_linear_19_25" x1="13.6402" y1="11.3525" x2="13.6402" y2="36.6482" gradientUnits="userSpaceOnUse">
<stop stop-color="#3021E8"/>
<stop offset="1" stop-color="#00268B"/>
</linearGradient>
<linearGradient id="paint1_linear_19_25" x1="13.6402" y1="11.3525" x2="13.6402" y2="36.6482" gradientUnits="userSpaceOnUse">
<stop stop-color="#302CE6"/>
<stop offset="1" stop-color="#0501AF"/>
</linearGradient>
<linearGradient id="paint2_linear_19_25" x1="76.6333" y1="0" x2="76.6333" y2="43" gradientUnits="userSpaceOnUse">
<stop stop-color="#2C5CDE"/>
<stop offset="1" stop-color="#3113EA"/>
</linearGradient>
</defs>
</svg>
