<svg width="27" height="27" viewBox="0 0 27 27" fill="none" xmlns="http://www.w3.org/2000/svg">
<path d="M13.3333 0C15.1014 0 16.7971 0.702379 18.0474 1.95262C19.2976 3.20286 20 4.89856 20 6.66667C20 8.43478 19.2976 10.1305 18.0474 11.3807C16.7971 12.631 15.1014 13.3333 13.3333 13.3333C11.5652 13.3333 9.86953 12.631 8.61929 11.3807C7.36905 10.1305 6.66667 8.43478 6.66667 6.66667C6.66667 4.89856 7.36905 3.20286 8.61929 1.95262C9.86953 0.702379 11.5652 0 13.3333 0ZM13.3333 3.33333C12.4493 3.33333 11.6014 3.68452 10.9763 4.30964C10.3512 4.93476 10 5.78261 10 6.66667C10 7.55072 10.3512 8.39857 10.9763 9.02369C11.6014 9.64881 12.4493 10 13.3333 10C14.2174 10 15.0652 9.64881 15.6904 9.02369C16.3155 8.39857 16.6667 7.55072 16.6667 6.66667C16.6667 5.78261 16.3155 4.93476 15.6904 4.30964C15.0652 3.68452 14.2174 3.33333 13.3333 3.33333ZM13.3333 15C17.7833 15 26.6667 17.2167 26.6667 21.6667V26.6667H0V21.6667C0 17.2167 8.88333 15 13.3333 15ZM13.3333 18.1667C8.38333 18.1667 3.16667 20.6 3.16667 21.6667V23.5H23.5V21.6667C23.5 20.6 18.2833 18.1667 13.3333 18.1667Z" fill="#FFD233"/>
</svg>
