<svg width="124" height="124" viewBox="0 0 124 124" fill="none" xmlns="http://www.w3.org/2000/svg">
<path d="M87.8335 67.1666H67.1668V87.8333H56.8335V67.1666H36.1668V56.8333H56.8335V36.1666H67.1668V56.8333H87.8335M62.0002 10.3333C55.2152 10.3333 48.4967 11.6697 42.2282 14.2662C35.9597 16.8627 30.264 20.6684 25.4663 25.4661C15.7769 35.1555 10.3335 48.2971 10.3335 62C10.3335 75.7028 15.7769 88.8445 25.4663 98.5338C30.264 103.332 35.9597 107.137 42.2282 109.734C48.4967 112.33 55.2152 113.667 62.0002 113.667C75.703 113.667 88.8446 108.223 98.534 98.5338C108.223 88.8445 113.667 75.7028 113.667 62C113.667 55.215 112.33 48.4965 109.734 42.228C107.137 35.9595 103.332 30.2638 98.534 25.4661C93.7363 20.6684 88.0406 16.8627 81.7721 14.2662C75.5037 11.6697 68.7851 10.3333 62.0002 10.3333Z" fill="white"/>
</svg>
