<svg width="40" height="40" viewBox="0 0 40 40" fill="none" xmlns="http://www.w3.org/2000/svg">
<g clip-path="url(#clip0_28_236)">
<path d="M19.1666 4.88623C20.805 4.88635 22.3984 5.41055 23.7033 6.37875C25.0082 7.34696 25.953 8.70596 26.3933 10.2482L26.48 10.5821L29.5966 9.82146C29.8244 9.76604 30.0617 9.75829 30.2927 9.79869C30.5238 9.8391 30.7436 9.92676 30.9376 10.0559C31.1316 10.1851 31.2955 10.3529 31.4185 10.5482C31.5416 10.7436 31.621 10.9622 31.6516 11.1896L31.6666 11.4014V14.3495C32.6063 15.2299 33.3763 16.2682 33.94 17.4149L34.17 17.9165H35C35.4082 17.9166 35.8022 18.0631 36.1073 18.3282C36.4123 18.5933 36.6072 18.9585 36.655 19.3548L36.6666 19.5453V24.4317C36.6667 24.6998 36.599 24.9637 36.4696 25.2001C36.3403 25.4365 36.1532 25.638 35.925 25.7868L35.745 25.8878L33.7983 26.8407C33.0014 28.3474 31.847 29.6459 30.4316 30.6276L30 30.911V32.5756C29.9999 32.9746 29.8501 33.3596 29.5788 33.6577C29.3075 33.9559 28.9337 34.1463 28.5283 34.193L28.3333 34.2044H23.3333C22.9251 34.2044 22.5311 34.0579 22.226 33.7928C21.921 33.5277 21.7261 33.1624 21.6783 32.7662L21.6666 32.5756H20C19.9999 32.9746 19.8501 33.3596 19.5788 33.6577C19.3075 33.9559 18.9337 34.1463 18.5283 34.193L18.3333 34.2044H13.3333C12.9251 34.2044 12.5311 34.0579 12.226 33.7928C11.921 33.5277 11.7261 33.1624 11.6783 32.7662L11.6666 32.5756V30.911C10.4626 30.1587 9.42257 29.1814 8.60626 28.035C7.78996 26.8887 7.21349 25.5961 6.90998 24.2313C5.92719 23.9455 5.058 23.3714 4.42007 22.5869C3.78213 21.8024 3.40625 20.8452 3.34331 19.845L3.33331 19.5453V18.7309C3.33378 18.3158 3.49644 17.9165 3.78806 17.6146C4.07968 17.3127 4.47823 17.1311 4.9023 17.1067C5.32637 17.0824 5.74395 17.2173 6.0697 17.4837C6.39546 17.7502 6.60481 18.1281 6.65498 18.5404L6.66665 18.7309V19.5453C6.66665 19.7864 6.71998 20.016 6.81665 20.2213C7.07104 18.7549 7.63853 17.3573 8.48219 16.1194C9.32586 14.8816 10.4268 13.8312 11.7133 13.0367C11.5951 12.0113 11.6997 10.9731 12.0203 9.99003C12.3409 9.00691 12.8703 8.10104 13.5739 7.33167C14.2775 6.56229 15.1393 5.94677 16.1031 5.52536C17.0669 5.10395 18.1108 4.88616 19.1666 4.88623ZM28.3333 13.4862L23.7366 14.6101L23.5366 14.6476L23.3333 14.659H17.5C15.8148 14.6579 14.1783 15.2115 12.8544 16.2305C11.5305 17.2495 10.5964 18.6746 10.2026 20.2759C9.80888 21.8773 9.97844 23.5615 10.684 25.0571C11.3895 26.5528 12.5899 27.7726 14.0916 28.5199C14.3336 28.6408 14.5416 28.8177 14.6976 29.0352C14.8536 29.2526 14.9528 29.5041 14.9866 29.7676L15 29.9696V30.9468H16.6666C16.6667 30.5479 16.8166 30.1628 17.0878 29.8647C17.3591 29.5666 17.7329 29.3761 18.1383 29.3294L18.3333 29.318H23.3333C23.7415 29.3181 24.1355 29.4646 24.4406 29.7297C24.7457 29.9948 24.9406 30.3601 24.9883 30.7563L25 30.9468H26.6666V29.9696C26.6668 29.6696 26.7517 29.3756 26.912 29.1198C27.0722 28.864 27.3017 28.6564 27.575 28.5199C29.1044 27.7548 30.3204 26.502 31.0216 24.9692C31.1466 24.695 31.3468 24.4599 31.6 24.29L31.7983 24.176L33.3333 23.4251V21.1741H32.9883C32.6254 21.174 32.2725 21.0581 31.9831 20.8441C31.6937 20.6301 31.4837 20.3296 31.385 19.9884C30.9681 18.5555 30.1147 17.2807 28.9383 16.3334C28.6119 16.0698 28.4004 15.6948 28.3466 15.2844L28.3333 15.0776V13.4879V13.4862ZM26.6666 17.9165C27.1087 17.9165 27.5326 18.0881 27.8452 18.3936C28.1577 18.6991 28.3333 19.1133 28.3333 19.5453C28.3333 19.9773 28.1577 20.3916 27.8452 20.697C27.5326 21.0025 27.1087 21.1741 26.6666 21.1741C26.2246 21.1741 25.8007 21.0025 25.4881 20.697C25.1756 20.3916 25 19.9773 25 19.5453C25 19.1133 25.1756 18.6991 25.4881 18.3936C25.8007 18.0881 26.2246 17.9165 26.6666 17.9165ZM19.1666 8.14381C18.1571 8.1438 17.1819 8.50198 16.4223 9.15177C15.6627 9.80155 15.1703 10.6988 15.0366 11.6766C15.8443 11.4933 16.6708 11.401 17.5 11.4014H23.1283L23.245 11.3737C23.0473 10.4599 22.5342 9.64023 21.7917 9.05218C21.0492 8.46413 20.1224 8.14342 19.1666 8.14381Z" fill="#FFD233"/>
</g>
<defs>
<clipPath id="clip0_28_236">
<rect width="40" height="39.0909" fill="white"/>
</clipPath>
</defs>
</svg>
